PathFileType	4	(X/Y/Z)	C:\Users\dbl\Desktop\LZH\BX\Trimmed_bx_n_0_1801.trc
DataRate	CameraRate	NumFrames	NumMarkers	Units	OrigDataRate	OrigDataStartFrame	OrigNumFrames
50.00	50.00	       7	43	mm	50.00	748	       997
Frame#	Time	Top.Head			R.Acromium			L.Acromium			Sternum			R.ASIS			L.ASIS			V.Sacral			R.Thigh.Upper			R.Thigh.Front			R.Thigh.Rear			R.Knee.Lat			R.Knee.Med			R.Shank.Upper			R.Shank.Front			R.Shank.Rear			R.Ankle.Lat			R.Midfoot.Lat			R.Toe.Lat			R.Toe.Tip			R.Toe.Med			R.Ankle.Med			R.Midfoot.Sup			R.Heel			L.Thigh.Upper			L.Thigh.Front			L.Thigh.Rear			L.Knee.Lat			L.Knee.Med			L.Shank.Upper			L.Shank.Front			L.Shank.Rear			L.Ankle.Lat			L.Midfoot.Lat			L.Toe.Lat			L.Toe.Tip			L.Toe.Med			L.Ankle.Med			L.Midfoot.Sup			L.Heel			origin1 front left			origin2 front right			origin 3 back right			origin 4 back leftt			
		X1	Y1	Z1	X2	Y2	Z2	X3	Y3	Z3	X4	Y4	Z4	X5	Y5	Z5	X6	Y6	Z6	X7	Y7	Z7	X8	Y8	Z8	X9	Y9	Z9	X10	Y10	Z10	X11	Y11	Z11	X12	Y12	Z12	X13	Y13	Z13	X14	Y14	Z14	X15	Y15	Z15	X16	Y16	Z16	X17	Y17	Z17	X18	Y18	Z18	X19	Y19	Z19	X20	Y20	Z20	X21	Y21	Z21	X22	Y22	Z22	X23	Y23	Z23	X24	Y24	Z24	X25	Y25	Z25	X26	Y26	Z26	X27	Y27	Z27	X28	Y28	Z28	X29	Y29	Z29	X30	Y30	Z30	X31	Y31	Z31	X32	Y32	Z32	X33	Y33	Z33	X34	Y34	Z34	X35	Y35	Z35	X36	Y36	Z36	X37	Y37	Z37	X38	Y38	Z38	X39	Y39	Z39	X40	Y40	Z40	X41	Y41	Z41	X42	Y42	Z42	X43	Y43	Z43	

748	14.940	-625.20587	242.86435	1831.23730	-593.56262	58.03923	1541.98547	-591.35449	416.18079	1536.17444	-502.33472	236.24792	1351.52515	-566.31091	113.61269	1034.43494	-540.29700	339.27301	1040.11389	-753.39587	240.54520	1067.59485	-647.31500	66.31967	837.53381	-553.43866	117.51418	819.88489	-644.23608	81.56274	727.27570	-668.05359	110.15665	606.39771	-631.93219	215.63899	564.84070	-693.81055	114.59769	539.35956	-611.82977	155.38998	525.71094	-702.75702	106.12230	489.00024	-698.22723	138.15657	212.83467	-625.82874	73.93942	164.22778	-579.23828	50.56294	160.85109	-503.29004	92.44834	161.65350	-543.07904	143.18219	164.50594	-646.81976	211.36972	218.65614	-604.68549	184.42572	170.42581	-730.14075	206.61362	170.29997	-628.72162	429.54572	859.96674	-544.49341	378.01706	823.88373	-646.33539	414.91147	745.37073	-650.41718	395.34723	609.66168	-624.44049	286.28632	570.61798	-662.68372	397.16733	561.51575	-598.27551	348.15326	540.40430	-715.45667	397.04297	498.14651	-680.08820	404.88873	216.74596	-589.41388	461.56345	164.04060	-551.99084	474.81503	158.44189	-490.79428	428.59698	167.94835	-526.38861	386.44922	177.93045	-639.80042	317.35013	207.31792	-593.78204	341.38138	168.31613	-730.99109	333.83606	162.64291	-443.76797	448.60852	146.73430	-450.42792	75.05707	143.19565	-806.37225	82.55344	140.90010	-800.13788	456.33951	144.59111	
749	14.960	-620.35553	242.60948	1830.96399	-590.43250	57.98831	1541.62048	-588.96448	416.14783	1535.97937	-501.59647	236.45103	1350.27344	-568.45135	113.80791	1034.27808	-542.42383	339.37643	1039.94458	-755.42224	240.66521	1068.16492	-648.64569	66.18192	837.49261	-554.42578	117.39493	820.80090	-644.06586	81.70387	727.33948	-666.47919	110.05462	606.41083	-629.62476	215.79248	565.02893	-691.84186	114.95575	539.32397	-609.65973	155.37161	525.68433	-700.92548	106.17901	489.11172	-697.99121	138.19604	212.96512	-625.85803	73.96409	164.20068	-579.22192	50.57498	160.90219	-503.26440	92.41877	161.62050	-543.03821	143.23450	164.48344	-646.18011	211.59648	218.78470	-604.61047	184.45508	170.39679	-730.10901	206.67175	170.36992	-630.24634	429.78110	860.07373	-545.59552	378.26929	824.56403	-646.59039	415.03375	745.27960	-649.26971	395.52893	609.62006	-622.65277	286.27209	570.68414	-661.33392	397.23611	561.32227	-596.71692	348.34009	540.45282	-714.18945	396.89648	498.16876	-679.90338	404.81311	216.67616	-589.42542	461.58026	164.06223	-552.05524	474.84811	158.36864	-490.73615	428.62585	167.92279	-526.15387	386.36771	177.95082	-639.66779	317.35922	207.13017	-593.70227	341.38721	168.22321	-730.93878	333.66776	162.54800	-443.76730	448.60516	146.74075	-450.40759	75.03018	143.16660	-806.39758	82.53524	140.89799	-800.12408	456.31818	144.61436	
750	14.980	-615.26007	242.38409	1830.50513	-587.12250	57.92821	1541.11682	-586.33093	416.12842	1535.61011	-500.81851	236.54118	1348.81873	-570.79333	113.91605	1034.07166	-544.67023	339.37204	1039.66187	-757.59900	240.80794	1068.73010	-650.01630	66.02081	837.36664	-555.40771	117.30235	821.72235	-643.75891	81.79209	727.29175	-664.60016	109.99606	606.25458	-627.02448	215.85023	565.14014	-689.62073	115.12326	539.26947	-607.24390	155.20454	525.53430	-698.97504	106.13986	489.13773	-697.72052	138.30223	213.05103	-625.87744	73.98155	164.17810	-579.25195	50.54179	160.90094	-503.25598	92.38187	161.61171	-542.98804	143.26614	164.46600	-645.42682	211.82713	218.85327	-604.57330	184.49387	170.31409	-730.03210	206.71037	170.45813	-631.80811	429.85217	860.08398	-546.76569	378.42322	825.21362	-646.82697	415.25104	745.18317	-648.14459	395.68985	609.55280	-621.02264	286.49863	570.61383	-660.00757	397.35135	561.10767	-595.24304	348.53354	540.44354	-712.99274	396.90454	498.13977	-679.69855	404.71021	216.60631	-589.42889	461.58594	164.06410	-552.07599	474.85986	158.33765	-490.71359	428.64020	167.91972	-526.11584	386.23489	177.76770	-639.56848	317.35345	206.93256	-593.67365	341.39337	168.20058	-731.08484	333.45920	162.44617	-443.75357	448.59842	146.73674	-450.38593	74.99635	143.12338	-806.40002	82.52562	140.89781	-800.05328	456.32938	144.62538	
751	15.000	-609.91998	242.21001	1829.84558	-583.63098	57.88305	1540.44092	-583.43256	416.08194	1535.01550	-499.97302	236.55997	1347.16199	-573.29773	113.98230	1033.75452	-547.14459	339.32565	1039.27185	-759.93494	240.91632	1069.30042	-651.41113	65.81206	837.15686	-556.38525	117.25973	822.60577	-643.33008	81.73187	727.18561	-662.42035	109.91003	605.92914	-624.19867	215.70671	565.14850	-687.08704	115.05032	539.19727	-604.62561	154.87823	525.20526	-696.88770	105.94742	489.09900	-697.44080	138.44888	213.05751	-625.88818	73.96498	164.16611	-579.30035	50.46454	160.84477	-503.25803	92.35091	161.60416	-542.95099	143.29135	164.45470	-644.81494	211.96539	218.74954	-604.57458	184.51923	170.21712	-729.94257	206.72487	170.53658	-633.35132	429.91708	860.05096	-547.99353	378.40308	825.83380	-647.00970	415.58902	745.09235	-646.95569	395.84976	609.46521	-619.53448	286.87140	570.45593	-658.64056	397.50928	560.93671	-593.78680	348.75177	540.40814	-711.74005	397.04935	498.09256	-679.45782	404.66458	216.55565	-589.42749	461.57962	164.04448	-552.05762	474.86746	158.35194	-490.72397	428.64590	167.94064	-526.24615	386.07474	177.45151	-639.45959	317.33325	206.78996	-593.68420	341.39639	168.21791	-731.38776	333.27191	162.39078	-443.73666	448.59891	146.74474	-450.36813	74.99353	143.09587	-806.39050	82.53540	140.89076	-799.96515	456.36862	144.63084	
752	15.020	-604.33484	242.08804	1828.97937	-579.96582	57.87746	1539.55505	-580.27795	415.98880	1534.19556	-499.04474	236.57741	1345.29065	-575.94409	114.10767	1033.22424	-549.94501	339.29260	1038.78735	-762.40674	240.98477	1069.86267	-652.78424	65.55499	836.85590	-557.38336	117.26014	823.42719	-642.77148	81.46610	727.02960	-659.98676	109.64273	605.51074	-621.23633	215.33580	565.04614	-684.27771	114.75609	539.04626	-601.87543	154.40996	524.71552	-694.60742	105.57493	489.00253	-697.16498	138.59875	212.97151	-625.88635	73.91968	164.18552	-579.32751	50.37220	160.77664	-503.25699	92.32890	161.58195	-542.93512	143.31570	164.45358	-644.39404	212.01350	218.51671	-604.58734	184.53630	170.12965	-729.86285	206.71263	170.58371	-634.86115	430.13461	860.03613	-549.29828	378.22968	826.43512	-647.08130	416.04489	744.98529	-645.57831	396.07016	609.34509	-618.06757	287.30267	570.31744	-657.10779	397.75137	560.81799	-592.21667	349.00702	540.37561	-710.31427	397.31946	498.06833	-679.19269	404.71664	216.54778	-589.42664	461.57672	164.01573	-552.01654	474.89594	158.38832	-490.74100	428.65543	167.96725	-526.40826	385.94366	177.17526	-639.31061	317.34235	206.71992	-593.69720	341.39917	168.22374	-731.67944	333.16431	162.38969	-443.72784	448.61020	146.76497	-450.34839	75.03212	143.10931	-806.37939	82.53468	140.88896	-799.91339	456.41159	144.63446	
753	15.040	-598.50214	242.01167	1827.88110	-576.15063	57.90969	1538.44727	-576.88055	415.87030	1533.16565	-498.04623	236.63087	1343.17981	-578.72693	114.37787	1032.42078	-553.03973	339.30231	1038.21899	-764.98602	241.01999	1070.38477	-654.10059	65.24680	836.49011	-558.45782	117.30269	824.19629	-642.08392	81.00042	726.79736	-657.38416	109.14529	605.03174	-618.26978	214.78885	564.87244	-681.34473	114.26466	538.76208	-599.09747	153.81477	524.13287	-692.14923	105.04436	488.83875	-696.90472	138.74887	212.81070	-625.87286	73.87836	164.23839	-579.31555	50.29947	160.75011	-503.24524	92.32006	161.55898	-542.93567	143.33231	164.46300	-644.06268	212.03838	218.29892	-604.59399	184.55699	170.05440	-729.80676	206.69826	170.59641	-636.40466	430.52863	860.04944	-550.70398	378.00800	827.04968	-646.98956	416.58344	744.81055	-643.90283	396.39914	609.16968	-616.49280	287.74902	570.29333	-655.27637	398.15189	560.68384	-590.41876	349.31088	540.35840	-708.64325	397.73688	498.07910	-678.96344	404.75787	216.53130	-589.42151	461.59070	163.99203	-551.97290	474.93851	158.41821	-490.73828	428.67828	167.98627	-526.50378	385.87924	177.03612	-639.11041	317.39963	206.69691	-593.68726	341.40894	168.20238	-731.83832	333.13593	162.42166	-443.72760	448.62189	146.77071	-450.31256	75.08067	143.15855	-806.36969	82.49920	140.90570	-799.91406	456.43454	144.63887	
754	15.060	-592.41510	241.97743	1826.49963	-572.19586	57.94594	1537.12207	-573.24408	415.75464	1531.90698	-496.98969	236.68996	1340.81189	-581.65143	114.80643	1031.36414	-556.28918	339.38177	1037.54675	-767.66321	241.04077	1070.81653	-655.37457	64.86927	836.08759	-559.66406	117.43658	824.92938	-641.29694	80.38441	726.48975	-654.70325	108.48883	604.48273	-615.43420	214.11809	564.67548	-678.46008	113.57365	538.38068	-596.37933	153.08278	523.52411	-689.62286	104.39610	488.61478	-696.66321	138.90736	212.60999	-625.86530	73.85415	164.29527	-579.28076	50.25847	160.78461	-503.22314	92.33790	161.55656	-542.94629	143.32909	164.47675	-643.80725	212.07257	218.14326	-604.58850	184.57620	169.99638	-729.77777	206.69783	170.59137	-638.07416	431.03314	860.03522	-552.19543	377.84488	827.71979	-646.72833	417.17044	744.53326	-641.85406	396.86270	608.94287	-614.68701	288.20514	570.37897	-653.06152	398.76791	560.48798	-588.32928	349.70718	540.35242	-706.69873	398.29776	498.09454	-678.80548	404.67361	216.43008	-589.40582	461.62839	163.97800	-551.94000	474.96005	158.43134	-490.70691	428.71448	168.00002	-526.54004	385.88641	176.99728	-638.86523	317.46121	206.66391	-593.63934	341.41766	168.19376	-731.87311	333.13400	162.46651	-443.72214	448.62689	146.74614	-450.26151	75.10223	143.21138	-806.36365	82.45554	140.94078	-799.94611	456.43219	144.64450	
